<?xml version="1.0" encoding="UTF-8"?>
<svg version="1.1" xmlns="http://www.w3.org/2000/svg" width="800" height="600">
<path d="M0 0 C264 0 528 0 800 0 C800 198 800 396 800 600 C536 600 272 600 0 600 C0 402 0 204 0 0 Z " fill="#FEFEFE" transform="translate(0,0)"/>
<path d="M0 0 C4.63070416 0.27784225 8.46164078 0.94291571 11.98608398 4.17553711 C13.43217536 6.7776659 13.06003523 8.56873332 12.72265625 11.50390625 C12.60873535 12.57697021 12.49481445 13.65003418 12.37744141 14.75561523 C12.25288574 15.82626221 12.12833008 16.89690918 12 18 C11.8169547 19.81464016 11.63838755 21.62973903 11.46484375 23.4453125 C11.3774292 24.35949951 11.29001465 25.27368652 11.19995117 26.21557617 C9.02030423 50.37822972 8.42672097 75.09294479 13 99 C13.27263672 100.64355469 13.27263672 100.64355469 13.55078125 102.3203125 C15.04015131 109.43281442 18.85662778 114.62764181 23.13671875 120.34765625 C25 123 25 123 25 125 C25.5775 125.20625 26.155 125.4125 26.75 125.625 C29 127 29 127 30.6875 129.6875 C37.81672838 140.88282821 54.81654903 147.91281902 67.22705078 150.97192383 C94.045919 156.35681469 124.58338058 151.4102235 148.61645508 138.76464844 C160.68645634 132.41673329 173.82964005 131.15126774 187.21313477 129.69702148 C191.06838204 129.29695277 191.06838204 129.29695277 194.85083008 128.48803711 C226.43009052 121.3169657 262.98314833 134.41307828 291 148 C291.66225586 148.32081543 292.32451172 148.64163086 293.00683594 148.97216797 C306.79593985 155.75646222 318.89425548 164.36321206 330 175 C330.86625 175.825 331.7325 176.65 332.625 177.5 C333.40875 178.325 334.1925 179.15 335 180 C335.59167969 180.6084375 336.18335938 181.216875 336.79296875 181.84375 C343.79126885 189.31582283 348.82008329 197.87921345 353.625 206.875 C355.92803739 211.09085915 358.8021448 214.44097527 362 218 C382.72925351 241.48740783 386.3224057 269.59992736 385 300 C384.66022129 304.23348087 384.10478083 308.40398161 383.4375 312.59765625 C382.55763277 319.44019513 382.72527901 324.43137236 385.9375 330.75 C391.42959551 341.70822367 392.50582558 355.87994973 388.71875 367.69140625 C384.68286595 378.1311983 378.37780481 387.51444392 367.90234375 392.1953125 C360.5899268 394.22271209 352.86180868 393.65561329 345.5078125 392.09375 C338.52626832 390.6255141 331.45754979 389.8600509 324.375 389.0625 C323.61880371 388.97695862 322.86260742 388.89141724 322.08349609 388.80328369 C303.09167817 386.67463549 284.07474304 385.15078453 265 384 C264.13628784 383.94672546 263.27257568 383.89345093 262.38269043 383.83856201 C192.25175823 379.56324415 120.91800979 379.93536897 50.9140625 386.00390625 C50.01220215 386.0798703 49.1103418 386.15583435 48.18115234 386.23410034 C35.28260475 387.40528674 24.44882442 392.47220043 12.81640625 397.81640625 C5.12542228 401.33310152 -2.58916808 404.45540108 -10.8125 406.5 C-15.1354455 407.60253797 -18.1762687 409.23550503 -21.83203125 411.73046875 C-29.89297915 416.45084365 -39.40734511 418.11438243 -48.62182617 418.14526367 C-49.92145798 418.15164352 -51.22108978 418.15802338 -52.56010437 418.16459656 C-53.97105878 418.1661273 -55.3820137 418.16724015 -56.79296875 418.16796875 C-58.26345348 418.17118961 -59.7339379 418.17455428 -61.204422 418.17805481 C-64.29017882 418.18403494 -67.37590772 418.18589629 -70.46166992 418.18530273 C-73.58900811 418.18522203 -76.71619812 418.19207444 -79.84350586 418.20581055 C-111.00040697 418.34077436 -111.00040697 418.34077436 -125.12817383 416.49682617 C-128.85380747 416.01875918 -132.54894963 415.70966387 -136.296875 415.47265625 C-137.37710938 415.40240234 -138.45734375 415.33214844 -139.5703125 415.25976562 C-141.73656867 415.12537258 -143.90327253 414.99805242 -146.0703125 414.87695312 C-152.92036442 414.41668935 -158.64917012 413.94427126 -163.99609375 409.24609375 C-164.47175781 408.64925781 -164.94742188 408.05242187 -165.4375 407.4375 C-166.17806641 406.53837891 -166.17806641 406.53837891 -166.93359375 405.62109375 C-168 404 -168 404 -168 402 C-168.91495239 401.92483154 -168.91495239 401.92483154 -169.84838867 401.84814453 C-172.62883426 401.61514187 -175.40810346 401.37018705 -178.1875 401.125 C-179.14720703 401.04636719 -180.10691406 400.96773438 -181.09570312 400.88671875 C-182.02705078 400.80292969 -182.95839844 400.71914063 -183.91796875 400.6328125 C-185.19837036 400.52283936 -185.19837036 400.52283936 -186.50463867 400.41064453 C-192.15761764 399.48037248 -195.92201499 396.98736312 -200 393 C-202.96508988 387.06982024 -202.42806913 380.7586677 -201.4375 374.375 C-198.15384497 366.66554906 -189.41472007 359.70736004 -182 356 C-178.98348307 355.89095344 -175.98599125 355.83854548 -172.96875 355.82421875 C-171.1067598 355.80099874 -169.24478062 355.77688056 -167.3828125 355.75195312 C-164.45142478 355.71700911 -161.52043667 355.68759427 -158.58886719 355.67407227 C-140.34276793 355.65814624 -140.34276793 355.65814624 -124.625 347.0625 C-123.83351563 346.41410156 -123.04203125 345.76570313 -122.2265625 345.09765625 C-119.83968401 342.84896546 -117.81024594 340.74110701 -116 338 C-116.14686604 333.78984022 -119.21688467 330.27520479 -121.4296875 326.828125 C-125.85923657 318.85052917 -126.48750433 312.39745682 -126.375 303.375 C-126.36557373 302.21726074 -126.35614746 301.05952148 -126.34643555 299.86669922 C-126.14999718 288.72371319 -125.42499201 271.42499201 -117 263 C-116.88575822 248.0571758 -122.2779653 235.23606197 -132 224 C-134.17601673 222.28544888 -136.11907275 221.20226984 -138.64453125 220.09375 C-143.54510602 217.81819289 -147.71778675 214.25735428 -152 211 C-152.639375 210.55269531 -153.27875 210.10539063 -153.9375 209.64453125 C-160.318676 204.84387801 -164.19728039 197.86557279 -168 191 C-168.38961914 190.32291992 -168.77923828 189.64583984 -169.18066406 188.94824219 C-178.35109542 172.40475342 -178.91960122 150.0535869 -175.05859375 131.68359375 C-172.98345739 124.46273179 -168.54124823 118.77965495 -164.26147461 112.70605469 C-162.5229812 110.23621048 -160.86889055 107.77497527 -159.34765625 105.1640625 C-158 103 -158 103 -156 102 C-154.50814062 98.19908437 -154.80850266 94.02443113 -154.8125 90 C-154.81258057 89.24614014 -154.81266113 88.49228027 -154.81274414 87.71557617 C-154.88721996 80.33776638 -155.8005551 73.17029223 -157.84375 66.06640625 C-158.05892448 61.843607 -156.14921335 59.71076997 -153.5625 56.625 C-153.12873047 56.07972656 -152.69496094 55.53445312 -152.24804688 54.97265625 C-151.18094652 53.63584921 -150.09250962 52.3161227 -149 51 C-150.62865568 47.44579829 -152.76497023 44.38802977 -155 41.1875 C-161.32608961 31.75003056 -161.32608961 31.75003056 -160.75 25.125 C-160 23 -160 23 -158 22 C-150.58524412 21.30415368 -144.08556587 21.37386848 -138 26 C-135.70776037 28.14097509 -133.87035271 30.48758591 -132 33 C-131.33742188 33.84046875 -130.67484375 34.6809375 -129.9921875 35.546875 C-126.65955651 39.90020109 -123.85475183 43.85760427 -122.0625 49.0625 C-119.42098912 56.47768301 -113.46852418 62.62270553 -107 67 C-97.17041379 71.40636623 -86.9996635 71.18111499 -76.375 71.1875 C-75.29476562 71.19974609 -74.21453125 71.21199219 -73.1015625 71.22460938 C-59.97743066 71.24861693 -50.02261358 67.44691364 -39.75390625 59.2734375 C-38 58 -38 58 -35.125 56.9375 C-32.15349523 55.62654201 -32.1653393 53.96904462 -31 51 C-29.99599218 49.55639957 -28.95074634 48.14096503 -27.875 46.75 C-24.62233793 42.23541303 -22.28369171 37.60657635 -20 32.5625 C-16.85457706 25.63226661 -13.30361048 19.29377776 -9 13 C-7.91644204 11.35431455 -6.83309772 9.7084884 -5.75 8.0625 C-3.91580629 5.3060572 -2.00452517 2.63536104 0 0 Z " fill="#000000" transform="translate(312,100)"/>
<path d="M0 0 C11.27843762 0.80959082 20.71006747 3.00342248 31.14941406 7.28466797 C33.92235652 8.35653095 36.76366619 9.13729648 39.625 9.9375 C46.26311277 11.90065115 56.03307607 15.03307607 61 20 C62.34747084 20.23075082 63.70377565 20.41153063 65.0625 20.5625 C66.361875 20.706875 67.66125 20.85125 69 21 C69 21.33 69 21.66 69 22 C44.27376804 22.7055334 23.05496153 20.66713211 3 5 C3 4.34 3 3.68 3 3 C2.01 2.67 1.02 2.34 0 2 C0 1.34 0 0.68 0 0 Z " fill="#F0F0F0" transform="translate(344,231)"/>
<path d="M0 0 C0.33 0 0.66 0 1 0 C1 8.91 1 17.82 1 27 C0.505 25.515 0.505 25.515 0 24 C-3.63220853 25.45288341 -6.73587303 26.82391535 -10 29 C-13 31 -13 31 -16.375 32.4375 C-23.75764489 35.44198686 -23.75764489 35.44198686 -29 41 C-30.6171523 41.89459489 -32.23432098 42.78916017 -33.8515625 43.68359375 C-48.73305931 52.8018927 -68.74773965 70.16699137 -75 87 C-75.44988281 87.41507812 -75.89976563 87.83015625 -76.36328125 88.2578125 C-81.7517563 93.99351626 -84.28869525 103.22518035 -86.34375 110.69921875 C-87.34790391 114.21973453 -88.67368666 117.58947997 -90 121 C-90.33 121 -90.66 121 -91 121 C-89.83869522 106.59982069 -84.13255473 92.94468976 -76 81 C-75.34 81 -74.68 81 -74 81 C-74 80.01 -74 79.02 -74 78 C-73.34 78 -72.68 78 -72 78 C-71.88390381 77.40396973 -71.76780762 76.80793945 -71.64819336 76.19384766 C-70.59069988 72.61470025 -67.98834443 70.12384381 -65.5625 67.375 C-65.02117432 66.75471924 -64.47984863 66.13443848 -63.92211914 65.49536133 C-53.4424933 53.59529038 -41.9266416 43.70212654 -29.0625 34.5 C-28.32829834 33.97100098 -27.59409668 33.44200195 -26.83764648 32.89697266 C-26.13969971 32.40503418 -25.44175293 31.9130957 -24.72265625 31.40625 C-24.10140869 30.96603516 -23.48016113 30.52582031 -22.84008789 30.07226562 C-20.90076316 28.94217219 -19.19254613 28.43372373 -17 28 C-17 27.34 -17 26.68 -17 26 C-14.54379149 24.82866942 -12.08525083 23.66278278 -9.625 22.5 C-8.92632812 22.16613281 -8.22765625 21.83226562 -7.5078125 21.48828125 C-2.2265625 19 -2.2265625 19 0 19 C0 12.73 0 6.46 0 0 Z " fill="#999999" transform="translate(135,240)"/>
<path d="M0 0 C-0.33 2.97 -0.66 5.94 -1 9 C-1.33 9 -1.66 9 -2 9 C-2 7.35 -2 5.7 -2 4 C-43.59635315 4.44755387 -43.59635315 4.44755387 -81.8984375 18.8984375 C-84 20 -84 20 -87 20 C-87 20.66 -87 21.32 -87 22 C-88.65 22.66 -90.3 23.32 -92 24 C-89.48694094 17.24430595 -81.20402866 14.53292476 -75.1015625 11.61328125 C-50.44835119 0.90770867 -26.508247 -0.51794671 0 0 Z " fill="#B0B0B0" transform="translate(138,228)"/>
<path d="M0 0 C2 3 2 3 3 6 C2.38125 6.556875 1.7625 7.11375 1.125 7.6875 C-1.06106379 10.06645178 -1.98785699 11.96357096 -3 15 C-3.66 15 -4.32 15 -5 15 C-5.33 16.65 -5.66 18.3 -6 20 C-6.66 20 -7.32 20 -8 20 C-8.309375 21.36125 -8.309375 21.36125 -8.625 22.75 C-9.63743162 26.35542194 -11.21199405 29.49421933 -12.9375 32.8125 C-15.65622705 38.08377275 -17.5517101 43.25765758 -19 49 C-19.66 49 -20.32 49 -21 49 C-21.13365967 49.85770996 -21.26731934 50.71541992 -21.4050293 51.59912109 C-21.98476733 54.91292939 -22.73805097 58.14271598 -23.51953125 61.4140625 C-25.1791734 69.08372791 -25.54802337 76.54836833 -25.6875 84.375 C-25.72080161 85.70836394 -25.75530219 87.04169848 -25.79101562 88.375 C-25.87238424 91.58324813 -25.94188696 94.79126106 -26 98 C-28.25812075 94.61281888 -28.25664104 93.41263569 -28.265625 89.44140625 C-28.26820312 88.33216797 -28.27078125 87.22292969 -28.2734375 86.08007812 C-28.26570313 84.91927734 -28.25796875 83.75847656 -28.25 82.5625 C-28.25773437 81.43650391 -28.26546875 80.31050781 -28.2734375 79.15039062 C-28.24726491 67.77185646 -26.49643048 57.37679376 -22.8125 46.625 C-22.50715332 45.72160889 -22.20180664 44.81821777 -21.88720703 43.88745117 C-19.21788613 36.20956577 -15.85787 29.15797567 -12 22 C-11.14084027 20.23158377 -10.28625365 18.46093414 -9.4375 16.6875 C-7.3646195 12.51419241 -4.91535094 8.71741847 -2.234375 4.91015625 C-0.83380964 2.91693399 -0.83380964 2.91693399 0 0 Z " fill="#ADADAD" transform="translate(142,286)"/>
<path d="M0 0 C0 0.66 0 1.32 0 2 C-1.2375 1.71125 -2.475 1.4225 -3.75 1.125 C-15.27601421 -1.38790682 -26.35193249 -2.40044679 -38.125 -2.375 C-38.89769226 -2.37578552 -39.67038452 -2.37657104 -40.4664917 -2.37738037 C-52.18275474 -2.36311039 -62.71044904 -1.36964811 -74 2 C-76.32840384 2.50482663 -78.65918523 2.98551387 -80.99755859 3.44189453 C-83.29058997 3.96915455 -83.29058997 3.96915455 -86 6 C-86.66 4.68 -87.32 3.36 -88 2 C-60.92617306 -9.16345222 -27.55625584 -9.72573735 0 0 Z " fill="#929292" transform="translate(421,216)"/>
<path d="M0 0 C11.27843762 0.80959082 20.71006747 3.00342248 31.14941406 7.28466797 C33.92235652 8.35653095 36.76366619 9.13729648 39.625 9.9375 C46.26311277 11.90065115 56.03307607 15.03307607 61 20 C62.34747084 20.23075082 63.70377565 20.41153063 65.0625 20.5625 C66.361875 20.706875 67.66125 20.85125 69 21 C69 21.33 69 21.66 69 22 C60.09 22 51.18 22 42 22 C42 21.67 42 21.34 42 21 C46.62 21 51.24 21 56 21 C56 20.34 56 19.68 56 19 C54.865625 18.814375 53.73125 18.62875 52.5625 18.4375 C47.62682677 17.36758349 43.18380856 15.48063306 38.5625 13.5 C32.39589808 10.87614125 26.66052704 8.94514991 20 8 C18.06188375 7.62819811 16.12439377 7.25311871 14.1875 6.875 C10.72655117 6.21041603 7.52555244 5.91138647 4 6 C3.67 5.01 3.34 4.02 3 3 C2.01 2.67 1.02 2.34 0 2 C0 1.34 0 0.68 0 0 Z " fill="#A7A7A7" transform="translate(344,231)"/>
<path d="M0 0 C0.33 0 0.66 0 1 0 C1 8.91 1 17.82 1 27 C0.505 25.515 0.505 25.515 0 24 C-3.63220853 25.45288341 -6.73587303 26.82391535 -10 29 C-13 31 -13 31 -16.375 32.4375 C-23.75764489 35.44198686 -23.75764489 35.44198686 -29 41 C-30.65 41 -32.3 41 -34 41 C-30.70021495 34.55756251 -25.27686735 31.36758915 -19 28 C-18.34 28 -17.68 28 -17 28 C-17 27.34 -17 26.68 -17 26 C-14.54379149 24.82866942 -12.08525083 23.66278278 -9.625 22.5 C-8.92632812 22.16613281 -8.22765625 21.83226562 -7.5078125 21.48828125 C-2.2265625 19 -2.2265625 19 0 19 C0 12.73 0 6.46 0 0 Z " fill="#949494" transform="translate(135,240)"/>
<path d="M0 0 C-2.63958118 1.75972078 -4.64748769 2.69589746 -7.59765625 3.7265625 C-8.92313477 4.190625 -8.92313477 4.190625 -10.27539062 4.6640625 C-11.19513672 4.98117188 -12.11488281 5.29828125 -13.0625 5.625 C-13.98611328 5.94984375 -14.90972656 6.2746875 -15.86132812 6.609375 C-22.73688616 9 -22.73688616 9 -25 9 C-25 9.66 -25 10.32 -25 11 C-25.928125 11.350625 -26.85625 11.70125 -27.8125 12.0625 C-39.22954177 17.00454614 -53.97768165 26.46652247 -61 37 C-61.33 34.36 -61.66 31.72 -62 29 C-61.4328125 28.90847656 -60.865625 28.81695312 -60.28125 28.72265625 C-57.41481915 27.81462593 -55.78746997 26.38566193 -53.5 24.4375 C-39.89050403 13.31148869 -18.54404547 -0.93143607 0 0 Z " fill="#9A9A9A" transform="translate(385,162)"/>
<path d="M0 0 C0.96846689 2.61486062 1.04559628 3.8442127 0.25 6.5625 C-1 9 -1 9 -2.390625 10.2734375 C-7.75293359 16.02620545 -10.28970548 25.22885447 -12.34375 32.69921875 C-13.34790391 36.21973453 -14.67368666 39.58947997 -16 43 C-16.33 43 -16.66 43 -17 43 C-15.83869522 28.59982069 -10.13255473 14.94468976 -2 3 C-1.34 3 -0.68 3 0 3 C0 2.01 0 1.02 0 0 Z " fill="#ABABAB" transform="translate(61,318)"/>
<path d="M0 0 C0 0.66 0 1.32 0 2 C-1.2375 1.71125 -2.475 1.4225 -3.75 1.125 C-13.92685588 -1.11106383 -23.83168034 -2.32979378 -34.25 -2.625 C-35.38824219 -2.66367188 -36.52648437 -2.70234375 -37.69921875 -2.7421875 C-40.46599779 -2.83518848 -43.23279117 -2.92102861 -46 -3 C-46 -3.33 -46 -3.66 -46 -4 C-29.67619522 -5.04846572 -15.72603455 -5.00162341 0 0 Z " fill="#CBCBCB" transform="translate(421,216)"/>
<path d="M0 0 C1.25619141 0.00451172 2.51238281 0.00902344 3.80664062 0.01367188 C6.89197663 0.02540319 9.97721316 0.041819 13.0625 0.0625 C13.0625 0.7225 13.0625 1.3825 13.0625 2.0625 C8.521212 2.26004468 3.97946597 2.44376885 -0.5625 2.625 C-1.84769531 2.68107422 -3.13289063 2.73714844 -4.45703125 2.79492188 C-6.32294922 2.86743164 -6.32294922 2.86743164 -8.2265625 2.94140625 C-9.36818848 2.9885376 -10.50981445 3.03566895 -11.68603516 3.08422852 C-14.88484186 3.0628519 -17.80366304 2.67889045 -20.9375 2.0625 C-20.9375 1.7325 -20.9375 1.4025 -20.9375 1.0625 C-13.98535719 -0.24941997 -7.05305097 -0.04808058 0 0 Z " fill="#A6A6A6" transform="translate(381.9375,209.9375)"/>
<path d="M0 0 C2 3 2 3 1.6875 5.9375 C0.61403509 10.71929825 0.61403509 10.71929825 0 13 C-0.66 13 -1.32 13 -2 13 C-2.2165625 14.299375 -2.2165625 14.299375 -2.4375 15.625 C-2.95833333 18.75 -3.47916667 21.875 -4 25 C-4.66 25 -5.32 25 -6 25 C-5.76919007 16.08234348 -2.99681008 8.29375483 0 0 Z " fill="#A0A0A0" transform="translate(123,322)"/>
<path d="M0 0 C-2.63958118 1.75972078 -4.64748769 2.69589746 -7.59765625 3.7265625 C-8.92313477 4.190625 -8.92313477 4.190625 -10.27539062 4.6640625 C-11.19513672 4.98117188 -12.11488281 5.29828125 -13.0625 5.625 C-13.98611328 5.94984375 -14.90972656 6.2746875 -15.86132812 6.609375 C-22.73688616 9 -22.73688616 9 -25 9 C-25 9.66 -25 10.32 -25 11 C-27 10 -27 10 -28 8 C-25.08489248 6.85017194 -22.16765566 5.70584512 -19.25 4.5625 C-18.425 4.23701172 -17.6 3.91152344 -16.75 3.57617188 C-15.95078125 3.26357422 -15.1515625 2.95097656 -14.328125 2.62890625 C-13.5949707 2.34088135 -12.86181641 2.05285645 -12.10644531 1.75610352 C-7.93495994 0.2587588 -4.44885286 -0.10111029 0 0 Z " fill="#B0B0B0" transform="translate(385,162)"/>
<path d="M0 0 C0.86931152 0.01047363 1.73862305 0.02094727 2.63427734 0.03173828 C3.57529297 0.03818359 4.51630859 0.04462891 5.48583984 0.05126953 C6.47068359 0.06802734 7.45552734 0.08478516 8.47021484 0.10205078 C9.46279297 0.11107422 10.45537109 0.12009766 11.47802734 0.12939453 C13.93399618 0.15300962 16.38948653 0.18594279 18.84521484 0.22705078 C18.51521484 2.86705078 18.18521484 5.50705078 17.84521484 8.22705078 C17.51521484 8.22705078 17.18521484 8.22705078 16.84521484 8.22705078 C16.84521484 6.57705078 16.84521484 4.92705078 16.84521484 3.22705078 C9.91521484 2.89705078 2.98521484 2.56705078 -4.15478516 2.22705078 C-2.15478516 0.22705078 -2.15478516 0.22705078 0 0 Z " fill="#8B8B8B" transform="translate(119.15478515625,228.77294921875)"/>
<path d="M0 0 C3.06403326 0.44843895 6.12586279 0.91050654 9.1875 1.375 C10.48397461 1.56449219 10.48397461 1.56449219 11.80664062 1.7578125 C16.12041829 2.41892785 20.02081745 3.10515117 24 5 C24 5.33 24 5.66 24 6 C17.28115045 6.12920865 10.68815484 5.62422779 4 5 C3.67 4.01 3.34 3.02 3 2 C2.01 1.67 1.02 1.34 0 1 C0 0.67 0 0.34 0 0 Z " fill="#848484" transform="translate(344,232)"/>
<path d="M0 0 C0.66 0.99 1.32 1.98 2 3 C0.58611621 4.75224914 -0.83122783 6.50170655 -2.25 8.25 C-3.03890625 9.22453125 -3.8278125 10.1990625 -4.640625 11.203125 C-6.66465805 13.60247544 -8.74122349 15.82411437 -11 18 C-10.61686024 12.57082802 -8.46164368 9.55148745 -4.9375 5.625 C-4.46505859 5.07972656 -3.99261719 4.53445313 -3.50585938 3.97265625 C-2.34782921 2.63916697 -1.17533989 1.31825781 0 0 Z " fill="#A1A1A1" transform="translate(73,303)"/>
<path d="M0 0 C-2.22050464 1.51439017 -4.44990229 3.01124868 -6.6875 4.5 C-7.31333984 4.92925781 -7.93917969 5.35851562 -8.58398438 5.80078125 C-12.16388718 8.16239252 -14.54851601 9.6128238 -19 9 C-16.10538645 5.86644429 -13.2286523 3.75157538 -9.5 1.6875 C-8.5615625 1.15511719 -7.623125 0.62273437 -6.65625 0.07421875 C-3.81912783 -1.07314683 -2.78529507 -1.12331476 0 0 Z " fill="#A6A6A6" transform="translate(359,172)"/>
<path d="M0 0 C5.86882273 0.53352934 11.64619754 1.40085109 17 4 C17.99 5.485 17.99 5.485 19 7 C12.0886636 6.52877252 6.27795839 3.79363994 0 1 C0 0.67 0 0.34 0 0 Z " fill="#9A9A9A" transform="translate(369,238)"/>
<path d="M0 0 C0 7.15667771 -3.4329326 14.39896953 -6 21 C-6.33 21 -6.66 21 -7 21 C-6.47546736 14.49579526 -5.66380742 8.02202618 -3 2 C-2.01 1.34 -1.02 0.68 0 0 Z " fill="#DEDEDE" transform="translate(51,340)"/>
<path d="M0 0 C0.33 0 0.66 0 1 0 C1 8.91 1 17.82 1 27 C0.67 26.01 0.34 25.02 0 24 C-1.32 24 -2.64 24 -4 24 C-3.505 22.515 -3.505 22.515 -3 21 C-2.34 20.67 -1.68 20.34 -1 20 C-0.67 13.4 -0.34 6.8 0 0 Z " fill="#888888" transform="translate(135,240)"/>
<path d="M0 0 C0.80050781 0.59167969 0.80050781 0.59167969 1.6171875 1.1953125 C0.01686613 2.03600665 -1.58822421 2.86762755 -3.1953125 3.6953125 C-4.53529297 4.39140625 -4.53529297 4.39140625 -5.90234375 5.1015625 C-8.3828125 6.1953125 -8.3828125 6.1953125 -11.3828125 6.1953125 C-11.3828125 6.8553125 -11.3828125 7.5153125 -11.3828125 8.1953125 C-13.0328125 8.8553125 -14.6828125 9.5153125 -16.3828125 10.1953125 C-14.87128061 5.99661281 -12.26681092 4.53527245 -8.5078125 2.3203125 C-7.45851563 1.68351563 -6.40921875 1.04671875 -5.328125 0.390625 C-2.3828125 -0.8046875 -2.3828125 -0.8046875 0 0 Z " fill="#D5D5D5" transform="translate(62.3828125,241.8046875)"/>
<path d="M0 0 C1.59134766 -0.02126953 1.59134766 -0.02126953 3.21484375 -0.04296875 C6.0625 0.1875 6.0625 0.1875 9.0625 2.1875 C4.7725 1.8575 0.4825 1.5275 -3.9375 1.1875 C-3.9375 1.8475 -3.9375 2.5075 -3.9375 3.1875 C-4.9275 3.6825 -4.9275 3.6825 -5.9375 4.1875 C-6.59305119 6.71483235 -6.59305119 6.71483235 -6.9375 9.1875 C-8.9375 6.1875 -8.9375 6.1875 -8.6875 3.5625 C-8.44 2.77875 -8.1925 1.995 -7.9375 1.1875 C-5.2264923 -0.16800385 -3.02410831 0.01832793 0 0 Z " fill="#3F3F3F" transform="translate(159.9375,121.8125)"/>
<path d="M0 0 C0 0.99 0 1.98 0 3 C-1.11375 3.309375 -2.2275 3.61875 -3.375 3.9375 C-6.7945155 4.82326483 -6.7945155 4.82326483 -9 6 C-9.66 4.68 -10.32 3.36 -11 2 C-9.73392393 1.46770674 -8.46189588 0.94955456 -7.1875 0.4375 C-6.47980469 0.14746094 -5.77210938 -0.14257812 -5.04296875 -0.44140625 C-3 -1 -3 -1 0 0 Z " fill="#9A9A9A" transform="translate(344,216)"/>
<path d="M0 0 C2 3 2 3 1.75 5.9375 C1.09911834 8.59526679 0.35855538 10.64517067 -1 13 C-2.5029278 10.46875317 -3.2006987 8.79254012 -2.46484375 5.88671875 C-1.7028501 3.89135862 -0.89496636 1.93909378 0 0 Z " fill="#B0B0B0" transform="translate(123,322)"/>
<path d="M0 0 C0.66 0.33 1.32 0.66 2 1 C1.01 1.66 0.02 2.32 -1 3 C-1.33 3.99 -1.66 4.98 -2 6 C-4.0625 7.1875 -4.0625 7.1875 -6 8 C-6 7.01 -6 6.02 -6 5 C-6.66 4.67 -7.32 4.34 -8 4 C-6.71349294 3.30289269 -5.42059335 2.61757124 -4.125 1.9375 C-3.40570313 1.55464844 -2.68640625 1.17179687 -1.9453125 0.77734375 C-1.30335938 0.52082031 -0.66140625 0.26429688 0 0 Z " fill="#9C9C9C" transform="translate(133,259)"/>
<path d="M0 0 C5 2 5 2 10 4 C9.67 4.99 9.34 5.98 9 7 C6.03 6.01 3.06 5.02 0 4 C0 2.66666667 0 1.33333333 0 0 Z " fill="#A5A5A5" transform="translate(386,242)"/>
<path d="M0 0 C-2.61331914 1.41554787 -5.30718129 2.58131312 -8.0625 3.6875 C-8.73410156 3.95949219 -9.40570313 4.23148438 -10.09765625 4.51171875 C-12 5 -12 5 -15 4 C-13.4470724 3.12855131 -11.88214564 2.27846343 -10.3125 1.4375 C-9.44238281 0.96183594 -8.57226562 0.48617187 -7.67578125 -0.00390625 C-4.61671247 -1.14268368 -3.08136961 -0.92718689 0 0 Z " fill="#AEAEAE" transform="translate(77,237)"/>
<path d="M0 0 C2 3 2 3 3 6 C1.71034824 7.37562854 0.37310707 8.70766393 -1 10 C-1.66 10 -2.32 10 -3 10 C-2.49287967 6.28111761 -1.88391785 3.26545761 0 0 Z " fill="#919191" transform="translate(142,286)"/>
<path d="M0 0 C1.32 0 2.64 0 4 0 C3.125 3.875 3.125 3.875 2 5 C0.00041636 5.04080783 -2.00045254 5.04254356 -4 5 C-2.25 2.5 -2.25 2.5 0 0 Z " fill="#8C8C8C" transform="translate(123,264)"/>
<path d="M0 0 C1.32 0 2.64 0 4 0 C2.86280581 3.41158256 1.95657056 4.11854601 -1 6 C-1.66 6 -2.32 6 -3 6 C-2.42655063 3.13275314 -2.1385485 2.1385485 0 0 Z " fill="#919191" transform="translate(91,286)"/>
<path d="M0 0 C-2.59901958 1.73267972 -4.13842116 2.48482049 -7.0625 3.25 C-8.10083984 3.53617188 -8.10083984 3.53617188 -9.16015625 3.828125 C-9.76730469 3.88484375 -10.37445313 3.9415625 -11 4 C-11.66 3.34 -12.32 2.68 -13 2 C-8.46298506 0.54815522 -4.81938524 -0.23509196 0 0 Z " fill="#C5C5C5" transform="translate(385,162)"/>
<path d="M0 0 C0.66 0.33 1.32 0.66 2 1 C1.01 1.66 0.02 2.32 -1 3 C-0.01 3.66 0.98 4.32 2 5 C0.02 5.66 -1.96 6.32 -4 7 C-3.67 5.02 -3.34 3.04 -3 1 C-2.01 0.67 -1.02 0.34 0 0 Z " fill="#A2A2A2" transform="translate(121,265)"/>
<path d="M0 0 C8.57142857 0.71428571 8.57142857 0.71428571 12 4 C7.6822542 3.49202991 3.96697886 2.80317221 0 1 C0 0.67 0 0.34 0 0 Z " fill="#868686" transform="translate(369,238)"/>
<path d="M0 0 C0 3.86695678 -1.41909971 6.5088452 -3 10 C-3.99928333 7.301935 -4.03624754 6.11989571 -3.1875 3.3125 C-2 1 -2 1 0 0 Z " fill="#C8C8C8" transform="translate(51,340)"/>
<path d="M0 0 C1.32 0.66 2.64 1.32 4 2 C-2.625 5.125 -2.625 5.125 -6 4 C-4.02 2.68 -2.04 1.36 0 0 Z " fill="#C2C2C2" transform="translate(60,241)"/>
<path d="M0 0 C1.0326802 2.78823655 1.04509293 3.8677274 0.0625 6.75 C-0.288125 7.4925 -0.63875 8.235 -1 9 C-1.99 8.67 -2.98 8.34 -4 8 C-3.34 6.35 -2.68 4.7 -2 3 C-1.34 3 -0.68 3 0 3 C0 2.01 0 1.02 0 0 Z " fill="#B2B2B2" transform="translate(61,318)"/>
<path d="M0 0 C0.33 0.99 0.66 1.98 1 3 C-3.75 7 -3.75 7 -6 7 C-6 6.34 -6 5.68 -6 5 C-4.04072937 3.2856382 -2.04119788 1.61594832 0 0 Z " fill="#EAEAEA" transform="translate(45,250)"/>
</svg>
